<svg width="512" height="512" viewBox="0 0 512 512" fill="none" xmlns="http://www.w3.org/2000/svg">
  <defs>
    <linearGradient id="bg" x1="0%" y1="0%" x2="100%" y2="100%">
      <stop offset="0%" stop-color="#00d296"/>
      <stop offset="100%" stop-color="#00b4dc"/>
    </linearGradient>
  </defs>
  <rect width="512" height="512" rx="112" fill="url(#bg)"/>
  <path d="M178.5 263.7C211.3 320.4 260.5 369.3 317.5 402.1L364.8 354.8C371.7 347.9 381.3 345.9 389.9 348.9C417.5 357.9 447.3 362.8 478 362.8C491.8 362.8 503 374 503 387.8V474C503 487.8 491.8 499 478 499C244.2 499 54 308.8 54 75C54 61.2 65.2 50 79 50H166.2C180 50 191.2 61.2 191.2 75C191.2 106.2 196.2 135.8 205.2 163.2C208 171.8 205.9 181.5 198.9 188.5L178.5 263.7Z" fill="white"/>
</svg>
